PathFileType	4	(X/Y/Z)	18_coords_data.trc
DataRate	CameraRate	NumFrames	NumMarkers	Units	OrigDataRate	OrigDataStartFrame	OrigNumFrames
30.0	30.0	7	21	m	30.0	12	66
Frame#	Time	THUMB_TIP	THUMB_IP	THUMB_MCP	THUMB_CMC	INDEX_TIP	INDEX_DIP	INDEX_PIP	INDEX_MCP	MIDDLE_TIP	MIDDLE_DIP	MIDDLE_PIP	MIDDLE_MCP	RING_TIP	RING_DIP	RING_PIP	RING_MCP	PINKY_TIP	PINKY_DIP	PINKY_PIP	PINKY_MCP	WRIST
X1	Y1	Z1	X2	Y2	Z2	X3	Y3	Z3	X4	Y4	Z4	X5	Y5	Z5	X6	Y6	Z6	X7	Y7	Z7	X8	Y8	Z8	X9	Y9	Z9	X10	Y10	Z10	X11	Y11	Z11	X12	Y12	Z12	X13	Y13	Z13	X14	Y14	Z14	X15	Y15	Z15	X16	Y16	Z16	X17	Y17	Z17	X18	Y18	Z18	X19	Y19	Z19	X20	Y20	Z20	X21	Y21	Z21
11	0.36666666666666664	0.013363699913024902	-0.04256679916381836	0.9393079833984375	0.008511710166931152	-0.02358419990539551	0.95697900390625	-0.006198029994964599	-0.010917799949645996	0.9793690185546875	-0.013489399909973145	0.017136699676513673	0.998010986328125	0.03090089988708496	0.01607309913635254	0.8693369750976563	0.016140499114990235	0.015173100471496581	0.8855650024414062	0.0030993399620056154	0.014568599700927734	0.9041480102539062	-0.007157730102539062	0.015128600120544433	0.9393150024414062	0.036921798706054686	0.05897740173339844	0.8615189819335938	0.022967199325561523	0.053565399169921875	0.8801389770507813	0.00729518985748291	0.04723970031738281	0.9024119873046875	-0.007852930068969727	0.038743900299072265	0.9380360107421875	0.047434200286865236	0.0747844009399414	0.884677001953125	0.031299400329589847	0.0714833984375	0.9003579711914063	0.013971699714660644	0.0670593032836914	0.9183359985351562	-0.002860359907150268	0.057406299591064455	0.946280029296875	0.051727298736572266	0.09823819732666016	0.9329439697265625	0.03645059967041016	0.09100669860839844	0.94131298828125	0.022511899948120116	0.08388330078125	0.9488309936523438	0.003357569932937622	0.07119180297851563	0.96125	-0.036371299743652344	0.04169279861450195	1.0121599731445312
12	0.4	0.014683199882507323	-0.042465801239013674	0.9391799926757812	0.009501429557800293	-0.023567800521850587	0.9568289794921875	-0.005491779804229736	-0.011023200035095215	0.9791320190429688	-0.013024499893188476	0.017029199600219726	0.997739990234375	0.0316299991607666	0.01607480049133301	0.869343994140625	0.016828699111938475	0.015152899742126465	0.8853369750976563	0.0037098300457000734	0.01448900032043457	0.9040029907226562	-0.006661970138549805	0.015008299827575684	0.9391220092773438	0.03744929885864258	0.05882619857788086	0.861197998046875	0.02340410041809082	0.05348659896850586	0.8799180297851562	0.007638370037078858	0.047033500671386716	0.9021339721679688	-0.007555500030517578	0.03855440139770508	0.9376099853515625	0.04800339889526367	0.07462909698486328	0.8846389770507812	0.03169129943847656	0.07133450317382813	0.9002869873046875	0.014344300270080566	0.06693370056152344	0.9180859985351563	-0.002507410049438476	0.0572156982421875	0.9459509887695312	0.052261100769042966	0.09796910095214843	0.9326900024414062	0.03689709854125976	0.09081590270996094	0.941135986328125	0.02276020050048828	0.083685302734375	0.948583984375	0.0036659200191497803	0.07096800231933593	0.9607849731445313	-0.03589339828491211	0.04144189834594727	1.0118099975585937
13	0.43333333333333335	0.015550700187683106	-0.04276810073852539	0.9392109985351562	0.010300399780273438	-0.023872699737548828	0.9567130126953125	-0.004796870231628418	-0.011311400413513183	0.9789099731445312	-0.012417099952697753	0.016822799682617188	0.9974910278320313	0.032257801055908204	0.015504500389099122	0.869197998046875	0.017449600219726562	0.014652600288391113	0.8851079711914063	0.0041761999130249024	0.014030500411987305	0.9035499877929688	-0.006152279853820801	0.014581199645996093	0.9387940063476562	0.03823189926147461	0.058290901184082033	0.8610230102539063	0.02412579917907715	0.052951698303222654	0.879656005859375	0.00834568977355957	0.046655101776123045	0.9017860107421874	-0.0069964599609375	0.03823569869995117	0.937447998046875	0.048937999725341796	0.07405590057373047	0.884655029296875	0.03261769866943359	0.07090910339355469	0.8999949951171875	0.015140500068664551	0.06655110168457032	0.9177930297851562	-0.001913419961929321	0.05687889862060547	0.9456099853515625	0.05320669937133789	0.09740160369873047	0.9327459716796875	0.03772200012207031	0.09038410186767579	0.9409970092773438	0.023522300720214842	0.08333329772949219	0.9483350219726563	0.004395020008087158	0.07078079986572265	0.9606829833984375	-0.03523699951171875	0.04134389877319336	1.0113300170898438
14	0.4666666666666667	0.016531600952148437	-0.0429989013671875	0.9390230102539062	0.011089300155639649	-0.024133899688720702	0.956625	-0.00410915994644165	-0.011573699951171875	0.9787990112304688	-0.011842700004577636	0.016554800033569336	0.9973870239257813	0.03344300079345703	0.015298500061035156	0.8691840209960937	0.01853770065307617	0.014392800331115722	0.8849910278320312	0.0051351900100708005	0.013752799987792969	0.9034879760742187	-0.005293109893798828	0.014327799797058106	0.9387130126953125	0.039667198181152344	0.05792670059204102	0.8612620239257812	0.025393800735473634	0.052697101593017576	0.8798070068359375	0.009364990234375	0.046379798889160155	0.9018989868164062	-0.006125639915466308	0.03787870025634766	0.937156005859375	0.050312698364257814	0.07372630310058594	0.88493701171875	0.033752399444580077	0.07057440185546875	0.9000390014648437	0.016120100021362306	0.06624949645996094	0.917822021484375	-0.001167160034179687	0.05659590148925781	0.94531298828125	0.05410979843139648	0.09697630310058594	0.9328800048828125	0.0386161994934082	0.0900186996459961	0.941041015625	0.02446529960632324	0.08300689697265624	0.9483489990234375	0.005244740009307861	0.07051000213623047	0.960323974609375	-0.034703201293945315	0.04104019927978515	1.0111400146484375
15	0.5	0.017783300399780273	-0.04309600067138672	0.9389600219726563	0.012181900024414062	-0.024272899627685546	0.9565430297851563	-0.0031353800296783437	-0.011801199913024902	0.9786890258789063	-0.010901100158691406	0.016335199356079102	0.997177001953125	0.03489649963378906	0.015125100135803222	0.8692340087890625	0.019723100662231444	0.014202199935913085	0.8849530029296875	0.0062483401298522945	0.013526700019836425	0.9034400024414062	-0.004390419960021973	0.013985600471496582	0.9384509887695313	0.041142200469970705	0.057530399322509765	0.861343994140625	0.026723100662231446	0.05242530059814453	0.8798270263671875	0.010591300010681152	0.046084598541259764	0.9017559814453125	-0.005185589790344238	0.037604400634765625	0.9370670166015626	0.0514541015625	0.07333450317382813	0.8850670166015625	0.03488339996337891	0.07029679870605468	0.9000479736328125	0.017176799774169922	0.06596829986572265	0.9176580200195312	-0.00023352900147438003	0.05631589889526367	0.9453289794921875	0.05496640014648437	0.09652629852294922	0.9327930297851562	0.03947520065307617	0.08972209930419922	0.9407340087890625	0.02524519920349121	0.08276860046386719	0.9479290161132813	0.005945089817047119	0.07016850280761719	0.9600419921875	-0.033870498657226564	0.04074729919433594	1.0109600219726562
16	0.5333333333333333	0.018979000091552733	-0.04344440078735352	0.9389140014648437	0.013230799674987793	-0.024600400924682617	0.9565260009765625	-0.002097270011901855	-0.012076800346374511	0.9787369995117188	-0.009708580017089843	0.016116199493408204	0.9970599975585938	0.03605889892578125	0.014737099647521972	0.8691859741210938	0.02081649971008301	0.013877799987792969	0.884885986328125	0.007386889934539795	0.013294500350952148	0.903260986328125	-0.003423759937286377	0.01370199966430664	0.9384530029296875	0.042285499572753904	0.05720180130004883	0.861343994140625	0.02783340072631836	0.05208259963989258	0.8797739868164063	0.011659000396728516	0.04579959869384766	0.9015750122070313	-0.004108469963073729	0.037344100952148435	0.9369970092773438	0.05270660018920898	0.07292769622802735	0.8851160278320312	0.036092700958251955	0.06993419647216798	0.8999329833984375	0.018192499160766602	0.0656094970703125	0.9176010131835938	0.0007940250039100641	0.05605619812011719	0.9452529907226562	0.055874900817871095	0.09627330017089844	0.9323209838867188	0.04028900146484375	0.08952079772949219	0.9403939819335938	0.026038999557495116	0.08258560180664062	0.9476829833984375	0.006895919799804687	0.0700980987548828	0.9599409790039063	-0.03261149978637695	0.04053110122680664	1.010989990234375
17	0.5666666666666667	0.02048990058898926	-0.04355730056762695	0.939041015625	0.014638199806213378	-0.024774099349975588	0.9566950073242187	-0.0006125299930572511	-0.012260000228881835	0.9789320068359375	-0.008366350173950196	0.01596720027923584	0.9971840209960937	0.03746580123901367	0.01470989990234375	0.8694550170898437	0.02216629981994629	0.013810000419616698	0.8851079711914063	0.008669650077819824	0.013146900177001953	0.9035399780273438	-0.002114890098571777	0.013589599609375	0.9386480102539062	0.0434989013671875	0.05709450149536133	0.8615809936523438	0.029009700775146485	0.051921001434326174	0.87985302734375	0.012798100471496583	0.045616798400878907	0.901780029296875	-0.003096950054168701	0.03722549819946289	0.9372210083007813	0.05371689987182617	0.07289949798583985	0.8852420043945313	0.03707820129394531	0.06987079620361328	0.9000070190429688	0.019067600250244142	0.06550990295410156	0.9176190185546875	0.001697520017623901	0.055944000244140625	0.9454119873046875	0.05670449829101563	0.09635079956054687	0.9322470092773437	0.04115169906616211	0.08959639739990234	0.94039501953125	0.026698299407958984	0.08259609985351563	0.9476240234375	0.007721889972686768	0.07003240203857422	0.9598839721679687	-0.031423799514770506	0.04028680038452148	1.011219970703125
